<?xml version="1.0" encoding="UTF-8"?>
<svg version="1.1" xmlns="http://www.w3.org/2000/svg" width="128" height="128">
<path d="M0 0 C1.65 0 3.3 0 5 0 C5.12189697 0.65484375 5.24379395 1.3096875 5.36938477 1.984375 C7.80625101 14.94068131 7.80625101 14.94068131 15.63623047 24.87451172 C22.10619944 27.95081071 28.97560487 29.69243235 36 31 C36 32.65 36 34.3 36 36 C16.76595745 44 16.76595745 44 12 44 C11.773125 45.19625 11.54625 46.3925 11.3125 47.625 C9.85180653 54.2887476 7.37759517 60.62042213 5 67 C3.35 67 1.7 67 0 67 C-0.58836665 65.58541635 -1.1702573 64.16813984 -1.75 62.75 C-2.31074219 61.39261719 -2.31074219 61.39261719 -2.8828125 60.0078125 C-4 57 -4 57 -4.8046875 53.8046875 C-6.18707845 47.88779166 -6.18707845 47.88779166 -10.0546875 43.4921875 C-12.67777995 42.42786564 -15.25636614 41.69614591 -18 41 C-20.19163381 40.28335399 -22.37919929 39.55414565 -24.5625 38.8125 C-25.57441406 38.48894531 -26.58632813 38.16539063 -27.62890625 37.83203125 C-30 37 -30 37 -31 36 C-31.04063832 34.33382885 -31.042721 32.66611905 -31 31 C-30.34515625 30.87810303 -29.6903125 30.75620605 -29.015625 30.63061523 C-16.05931869 28.19374899 -16.05931869 28.19374899 -6.12548828 20.36376953 C-3.04918929 13.89380056 -1.30756765 7.02439513 0 0 Z " fill="#FCFCFA" transform="translate(31,61)"/>
<path d="M0 0 C0 1.65 0 3.3 0 5 C-3.32386207 6.09518958 -5.49287606 5.84892092 -8.875 5.0625 C-25.57131376 1.82523332 -43.53256139 4.63893861 -57.9453125 13.890625 C-67.42133237 20.48672893 -67.42133237 20.48672893 -75 29 C-76.65 28.67 -78.3 28.34 -80 28 C-79.89766392 23.80422068 -78.90689559 21.51372735 -76.0625 18.5625 C-58.07110981 1.99148272 -24.19217067 -12.09608533 0 0 Z " fill="#B8870A" transform="translate(128,41)"/>
<path d="M0 0 C2 2 2 2 2.76171875 5.08203125 C4.25547916 11.97304616 4.25547916 11.97304616 8.70019531 17.14501953 C12.96445163 19.07782392 17.4186043 20.11253467 22 21 C19.50063756 23.49936244 17.35191992 24.03723753 14 25.125 C12.9275 25.47820312 11.855 25.83140625 10.75 26.1953125 C8 27 8 27 6 27 C5.80664062 27.72445312 5.61328125 28.44890625 5.4140625 29.1953125 C4.07139714 34.18045615 2.71250514 39.12594691 1 44 C-1.06972754 40.89540869 -1.64659471 38.64205256 -2.5625 35.0625 C-3.93298648 30.68133962 -3.93298648 30.68133962 -6.98046875 27.4296875 C-9.29651182 26.41716609 -11.56637205 25.67887501 -14 25 C-15.52505326 24.42778993 -17.04626482 23.8451829 -18.5625 23.25 C-19.696875 22.8375 -20.83125 22.425 -22 22 C-19.51340379 19.51340379 -17.39516054 18.9656889 -14.0625 17.875 C-13.00160156 17.52179688 -11.94070312 17.16859375 -10.84765625 16.8046875 C-8 16 -8 16 -5 16 C-4.83564453 15.14728516 -4.83564453 15.14728516 -4.66796875 14.27734375 C-3.62061834 9.17683242 -2.20728247 4.715558 0 0 Z " fill="#B98811" transform="translate(33,73)"/>
<path d="M0 0 C-0.33 1.32 -0.66 2.64 -1 4 C-1.99902344 4.28488281 -2.99804688 4.56976563 -4.02734375 4.86328125 C-4.66913574 5.04713379 -5.31092773 5.23098633 -5.97216797 5.42041016 C-7.87751867 5.96499269 -9.78441267 6.50416739 -11.69140625 7.04296875 C-25.43679028 11.04659858 -37.04902514 16.56657596 -48 26 C-49.3250921 27.010895 -50.65579833 28.0146576 -52 29 C-53.32 28.34 -54.64 27.68 -56 27 C-55.16148046 20.89667743 -49.57964557 17.54252482 -45 14 C-35.05775801 7.44981704 -11.27736957 -7.52743739 0 0 Z " fill="#B8870A" transform="translate(98,25)"/>
<path d="M0 0 C0.51433594 0.36996094 1.02867188 0.73992188 1.55859375 1.12109375 C1.2578125 3.0390625 1.2578125 3.0390625 0.55859375 5.12109375 C-1.21037953 5.84949451 -2.99109722 6.55519108 -4.8046875 7.1640625 C-14.40399965 10.64825728 -22.15195403 15.04809578 -29.35546875 22.30078125 C-31.47650785 24.15172548 -32.64107058 24.94385732 -35.44140625 25.12109375 C-36.10140625 24.46109375 -36.76140625 23.80109375 -37.44140625 23.12109375 C-36.96962032 17.69555555 -32.31013096 14.45857193 -28.44140625 11.12109375 C-22.15082211 6.24513858 -8.31288968 -2.99264028 0 0 Z " fill="#B8870A" transform="translate(96.44140625,54.87890625)"/>
<path d="M0 0 C1.52734375 1.5234375 1.52734375 1.5234375 2.9375 3.375 C5.33703522 6.34846985 7.53607558 8.26803779 11 10 C10.39891424 15.65020618 8.92471317 20.66164461 7 26 C4.93027246 22.89540869 4.35340529 20.64205256 3.4375 17.0625 C2.06701352 12.68133962 2.06701352 12.68133962 -0.98046875 9.4296875 C-3.29651182 8.41716609 -5.56637205 7.67887501 -8 7 C-9.52505326 6.42778993 -11.04626482 5.8451829 -12.5625 5.25 C-13.696875 4.8375 -14.83125 4.425 -16 4 C-13.71185277 1.71185277 -12.19248378 1.24548839 -9.125 0.3125 C-8.26132812 0.04050781 -7.39765625 -0.23148437 -6.5078125 -0.51171875 C-3.82684951 -1.0337131 -2.50028479 -1.0640625 0 0 Z " fill="#256341" transform="translate(27,91)"/>
<path d="M0 0 C3.69230769 0.69230769 3.69230769 0.69230769 5 2 C5.04080783 3.99958364 5.04254356 6.00045254 5 8 C7.31 8 9.62 8 12 8 C12.042721 9.66611905 12.04063832 11.33382885 12 13 C11 14 11 14 7.9375 14.0625 C6.968125 14.041875 5.99875 14.02125 5 14 C5 15.98 5 17.96 5 20 C3.125 21.0625 3.125 21.0625 1 22 C0.34 21.67 -0.32 21.34 -1 21 C-1 18.69 -1 16.38 -1 14 C-3.31 14 -5.62 14 -8 14 C-8.38218767 12.34385343 -8.71395102 10.67542976 -9 9 C-8 8 -8 8 -4.4375 7.9375 C-3.303125 7.958125 -2.16875 7.97875 -1 8 C-1.020625 6.865625 -1.04125 5.73125 -1.0625 4.5625 C-1 1 -1 1 0 0 Z " fill="#B8860A" transform="translate(116,99)"/>
<path d="M0 0 C1.66611905 -0.042721 3.33382885 -0.04063832 5 0 C6 1 6 1 6.0625 4.0625 C6.041875 5.031875 6.02125 6.00125 6 7 C7.98 7 9.96 7 12 7 C12.38218767 8.65614657 12.71395102 10.32457024 13 12 C12 13 12 13 8.9375 13.0625 C7.968125 13.041875 6.99875 13.02125 6 13 C6.061875 14.423125 6.061875 14.423125 6.125 15.875 C6 19 6 19 4 21 C1.875 20.625 1.875 20.625 0 20 C0 17.69 0 15.38 0 13 C-2.31 13 -4.62 13 -7 13 C-7.38218767 11.34385343 -7.71395102 9.67542976 -8 8 C-7 7 -7 7 -3.4375 6.9375 C-2.303125 6.958125 -1.16875 6.97875 0 7 C0 4.69 0 2.38 0 0 Z " fill="#B7860A" transform="translate(54,0)"/>
<path d="M0 0 C0.886875 0.09796875 1.77375 0.1959375 2.6875 0.296875 C3.574375 0.38453125 4.46125 0.4721875 5.375 0.5625 C7.6875 1.046875 7.6875 1.046875 9.6875 3.046875 C9.5 5.109375 9.5 5.109375 8.6875 7.046875 C5.39053895 8.14586202 4.28255097 7.91811944 1 7.109375 C0.19175781 6.91472656 -0.61648437 6.72007813 -1.44921875 6.51953125 C-2.06410156 6.36355469 -2.67898437 6.20757812 -3.3125 6.046875 C-3.9375 4.171875 -3.9375 4.171875 -4.3125 2.046875 C-2.3125 0.046875 -2.3125 0.046875 0 0 Z " fill="#B7870A" transform="translate(111.3125,52.953125)"/>
<path d="M0 0 C0.88429688 -0.01417969 1.76859375 -0.02835938 2.6796875 -0.04296875 C5.125 0.1875 5.125 0.1875 8.125 2.1875 C7.8125 4.125 7.8125 4.125 7.125 6.1875 C4.03021121 7.21909626 2.59868607 7.16232862 -0.5625 6.75 C-1.37074219 6.64816406 -2.17898437 6.54632812 -3.01171875 6.44140625 C-3.62660156 6.35761719 -4.24148437 6.27382813 -4.875 6.1875 C-5.25718767 4.53135343 -5.58895102 2.86292976 -5.875 1.1875 C-4.21846314 -0.46903686 -2.26849204 0.01643835 0 0 Z " fill="#B7860A" transform="translate(112.875,22.8125)"/>
<path d="M0 0 C2.0625 0.4375 2.0625 0.4375 4 1 C4.5625 2.9375 4.5625 2.9375 5 5 C4 6 4 6 1.4375 6.0625 C0.2309375 6.0315625 0.2309375 6.0315625 -1 6 C-1.042721 4.33388095 -1.04063832 2.66617115 -1 1 C-0.67 0.67 -0.34 0.34 0 0 Z " fill="#B9890A" transform="translate(116,76)"/>
<path d="M0 0 C2.0625 0.4375 2.0625 0.4375 4 1 C4.5625 2.9375 4.5625 2.9375 5 5 C4 6 4 6 1.4375 6.0625 C0.2309375 6.0315625 0.2309375 6.0315625 -1 6 C-1.042721 4.33388095 -1.04063832 2.66617115 -1 1 C-0.67 0.67 -0.34 0.34 0 0 Z " fill="#B58509" transform="translate(32,30)"/>
<path d="M0 0 C2.0625 0.4375 2.0625 0.4375 4 1 C3.67 2.65 3.34 4.3 3 6 C1.35 5.67 -0.3 5.34 -2 5 C-1.125 1.125 -1.125 1.125 0 0 Z " fill="#B8850A" transform="translate(86,76)"/>
<path d="M0 0 C2.125 0.375 2.125 0.375 4 1 C4 2.65 4 4.3 4 6 C2.35 6 0.7 6 -1 6 C-1.625 4.125 -1.625 4.125 -2 2 C-1.34 1.34 -0.68 0.68 0 0 Z " fill="#B98709" transform="translate(86,7)"/>
</svg>
